# xmcd
#
# Track frame offsets:
#	183
#	11745
#	24490
#	37893
#	50038
#	59780
#	71068
#	80948
#	91350
#	102283
#	113343
#	124690
#	135000
#	145588
#	156175
#	167740
#	180525
#
# Disc length: 2561 seconds
#
# Revision: 1
# Processed by: cddbd v1.5.2PL0 Copyright (c) Steve Scherf et al.
# Submitted via: VUPlayer 2.49
#
DISCID=e009ff11
DTITLE=Patsy Cline - 16 Greatest Hits =AAD==1988=
DYEAR=1988
DGENRE=Country
TTITLE0=Walking After Midnight
TTITLE1=I Fall To Pieces
TTITLE2=She's Got You
TTITLE3=Crazy
TTITLE4=Heartaches
TTITLE5=Just Out of Reach
TTITLE6=Seven Lonely Days
TTITLE7=I Love You Honey
TTITLE8=I Can't Forget You
TTITLE9=A Stranger in My Arms
TTITLE10=Crazy Dreams
TTITLE11=Three Cigarettes in An Ashtray
TTITLE12=Honky Tonk Merry Go Round
TTITLE13=Got A Lot of Rhythm in My Soul
TTITLE14=In Care of the Blues
TTITLE15=Fingerprints
TTITLE16=I've Loved and Lost Again
EXTD=
EXTT0=
EXTT1=
EXTT2=
EXTT3=
EXTT4=
EXTT5=
EXTT6=
EXTT7=
EXTT8=
EXTT9=
EXTT10=
EXTT11=
EXTT12=
EXTT13=
EXTT14=
EXTT15=
EXTT16=
PLAYORDER=
